<svg width="30" height="30" viewBox="0 0 30 30" fill="none" xmlns="http://www.w3.org/2000/svg">
<path d="M10 3.75H20C20.9946 3.75 21.9484 4.14509 22.6517 4.84835C23.3549 5.55161 23.75 6.50544 23.75 7.5V26.25L15 22.5L6.25 26.25V7.5C6.25 6.50544 6.64509 5.55161 7.34835 4.84835C8.05161 4.14509 9.00544 3.75 10 3.75ZM10 5C9.33696 5 8.70107 5.26339 8.23223 5.73223C7.76339 6.20107 7.5 6.83696 7.5 7.5V24.375L15 21.175L22.5 24.375V7.5C22.5 6.83696 22.2366 6.20107 21.7678 5.73223C21.2989 5.26339 20.663 5 20 5H10Z" fill="#0033A0"/>
</svg>
