<svg width="300" height="68" viewBox="0 0 300 68" fill="none" xmlns="http://www.w3.org/2000/svg">
<path d="M86.2279 41.0048V21.3295H84.2032C83.7132 21.3295 83.4338 21.6099 83.4338 22.0936V23.4511H78.0278V18.5048C78.0278 16.7287 78.6555 16.1028 80.4332 16.1028H98.2627C100.04 16.1028 100.668 16.7287 100.668 18.5048V23.4511H95.258V22.0936C95.258 21.6059 94.9786 21.3295 94.4887 21.3295H92.464V41.0048H86.2198H86.2279Z" fill="#FF3B30"/>
<path d="M101.377 28.2957C101.377 21.1588 106.856 15.6923 114.286 15.6923C117.251 15.6923 123.847 16.8425 123.847 21.5083V24.7801H118.263V23.4226C118.263 21.996 116.032 21.4392 114.424 21.4392C110.796 21.4392 107.864 23.7721 107.864 28.2998C107.864 32.3722 110.901 35.6805 114.562 35.6805C118.923 35.6805 121.681 32.5104 121.681 32.5104L124.855 36.9689C124.855 36.9689 121.089 41.4275 114.456 41.4275C106.572 41.4275 101.373 35.7862 101.373 28.2998L101.377 28.2957Z" fill="#FF3B30"/>
<path d="M128.892 41.0049V22.0977C128.892 21.61 128.613 21.3336 128.123 21.3336H126.625V16.111H132.59C134.367 16.111 135.137 16.8751 135.137 18.6512V26.0685H143.58V18.6512C143.58 16.8751 144.349 16.111 146.127 16.111H152.091V21.3336H150.593C150.103 21.3336 149.824 21.614 149.824 22.0977V41.0049H143.58V31.2546H135.137V41.0049H128.892Z" fill="#FF3B30"/>
<path d="M153.424 41.0048V35.7821H154.088C154.647 35.7821 154.821 35.6074 155.031 35.014L161.834 16.1068H168.326L175.129 35.014C175.339 35.6074 175.513 35.7821 176.072 35.7821H176.736V41.0048H172.723C170.978 41.0048 170.281 40.4846 169.792 38.9848L168.71 35.7821H161.454L160.373 38.9848C159.883 40.4805 159.186 41.0048 157.441 41.0048H153.428H153.424ZM162.778 30.7343H167.382L166.127 26.5887C165.637 25.0198 165.114 22.4797 165.114 22.4797H165.046C165.046 22.4797 164.523 25.0198 164.033 26.5887L162.778 30.7343Z" fill="#FF3B30"/>
<path d="M180.344 38.4647V21.3336H178.077V16.111H188.334C196.186 16.111 201.207 20.6711 201.207 28.5071C201.207 36.3431 196.182 41.0089 188.334 41.0089H182.891C181.114 41.0089 180.344 40.2448 180.344 38.4687V38.4647ZM186.589 35.0181C186.589 35.5059 186.868 35.7863 187.358 35.7863H188.091C192.209 35.7863 194.72 33.2786 194.72 28.5071C194.72 23.7356 192.104 21.3336 188.091 21.3336H186.589V35.0181Z" fill="#FF3B30"/>
<path d="M203.645 41.0049V38.8467H205.949V18.6837H203.645V16.5255H210.658V18.6837H208.322V38.8467H210.658V41.0049H203.645Z" fill="#FF3B30"/>
<path d="M213.723 41.0049V38.8467H215.222C215.712 38.8467 215.991 38.6029 215.991 38.0826V16.5296H218.222L230.747 33.9736C231.585 35.1929 232.735 37.1763 232.735 37.1763H232.804C232.804 37.1763 232.63 35.262 232.63 33.9736V18.6511C232.63 17.1555 233.258 16.5255 234.76 16.5255H237.344V18.6837H235.845C235.355 18.6837 235.076 18.9275 235.076 19.4478V41.0008H232.845L220.32 23.5568C219.449 22.3741 218.295 20.3866 218.295 20.3866H218.226C218.226 20.3866 218.437 22.2684 218.437 23.5568V38.8792C218.437 40.3749 217.809 41.0049 216.307 41.0049H213.723Z" fill="#FF3B30"/>
<path d="M242.503 41.0049V18.6837H240.235V16.5255H253.282C254.78 16.5255 255.376 17.1514 255.376 18.6511V21.0897H253.108V19.4518C253.108 18.9275 252.829 18.6877 252.339 18.6877H244.94V27.8812H253.837V30.0394H244.94V41.0089H242.498L242.503 41.0049Z" fill="#FF3B30"/>
<path d="M257.161 28.6086C257.161 21.5733 262.673 16.1068 269.654 16.1068C276.635 16.1068 282.146 21.5733 282.146 28.6086C282.146 35.644 276.599 41.4234 269.654 41.4234C262.709 41.4234 257.161 35.7821 257.161 28.6086ZM259.708 28.6086C259.708 34.5263 264.138 39.123 269.654 39.123C275.169 39.123 279.599 34.5263 279.599 28.6086C279.599 22.691 275.133 18.4072 269.654 18.4072C264.175 18.4072 259.708 22.8292 259.708 28.6086Z" fill="#FF3B30"/>
<path d="M284.726 37.9403L286.224 36.1642C286.224 36.1642 288.702 39.1596 292.573 39.1596C295.258 39.1596 297.425 37.4201 297.425 34.8067C297.425 28.7468 285.317 29.9661 285.317 22.374C285.317 18.96 288.281 16.1068 292.816 16.1068C295.189 16.1068 299.445 17.1148 299.445 20.3215V22.061H297.141V20.9108C297.141 19.4477 295.116 18.3706 292.853 18.3706C289.678 18.3706 287.827 20.2158 287.827 22.3049C287.827 27.9827 299.935 26.5887 299.935 34.6645C299.935 38.3223 297.113 41.4193 292.504 41.4193C287.479 41.4193 284.726 37.9362 284.726 37.9362V37.9403Z" fill="#FF3B30"/>
<path d="M79.9109 59.8551V52.9336H80.6965V59.8551H79.9109Z" fill="#FF3B30"/>
<path d="M90.2895 59.8551H89.3824L85.7015 54.0391H85.665C85.6731 54.1935 85.6853 54.3723 85.6974 54.5715C85.7096 54.7666 85.7177 54.9779 85.7258 55.2014C85.7339 55.4209 85.7379 55.6485 85.7379 55.8802V59.8591H85.009V52.9376H85.908L89.5768 58.7333H89.6092C89.6011 58.6236 89.597 58.4651 89.5849 58.2659C89.5768 58.0627 89.5646 57.8432 89.5565 57.6075C89.5484 57.3718 89.5484 57.1523 89.5484 56.9491V52.9376H90.2854V59.8591L90.2895 59.8551Z" fill="#FF3B30"/>
<path d="M95.3715 59.8551H94.5859V52.9336H98.3438V53.6448H95.3715V56.181H98.1656V56.8882H95.3715V59.8551Z" fill="#FF3B30"/>
<path d="M107.787 56.3883C107.787 56.9207 107.722 57.4084 107.589 57.8474C107.455 58.2823 107.261 58.6603 106.997 58.9732C106.738 59.2862 106.418 59.526 106.034 59.6967C105.649 59.8674 105.204 59.9527 104.693 59.9527C104.183 59.9527 103.713 59.8674 103.321 59.6967C102.932 59.526 102.608 59.2821 102.349 58.9691C102.094 58.6521 101.899 58.2782 101.77 57.8393C101.644 57.4003 101.579 56.9167 101.579 56.3802C101.579 55.673 101.693 55.0511 101.919 54.5187C102.146 53.9863 102.49 53.5717 102.952 53.275C103.418 52.9783 104.001 52.832 104.697 52.832C105.394 52.832 105.928 52.9783 106.382 53.271C106.84 53.5636 107.188 53.9782 107.423 54.5106C107.662 55.043 107.779 55.6689 107.779 56.3924L107.787 56.3883ZM102.414 56.3883C102.414 56.9736 102.495 57.4857 102.656 57.9124C102.818 58.3432 103.07 58.6724 103.406 58.9082C103.746 59.1439 104.175 59.2577 104.693 59.2577C105.212 59.2577 105.645 59.1398 105.977 58.9082C106.313 58.6765 106.56 58.3432 106.722 57.9124C106.884 57.4816 106.961 56.9736 106.961 56.3883C106.961 55.4942 106.779 54.7992 106.41 54.2952C106.046 53.7912 105.479 53.5392 104.705 53.5392C104.183 53.5392 103.75 53.653 103.414 53.8847C103.074 54.1164 102.823 54.4415 102.656 54.8682C102.495 55.2909 102.414 55.799 102.414 56.3883Z" fill="#FF3B30"/>
<path d="M113.578 52.9336C114.133 52.9336 114.59 53.0027 114.95 53.145C115.315 53.2832 115.586 53.4986 115.764 53.7831C115.943 54.0716 116.032 54.4374 116.032 54.8804C116.032 55.2462 115.967 55.551 115.837 55.799C115.708 56.0428 115.538 56.2379 115.327 56.3924C115.117 56.5427 114.894 56.6606 114.659 56.7419L116.51 59.8511H115.594L113.942 56.9614H112.537V59.8511H111.751V52.9296H113.578V52.9336ZM113.529 53.6327H112.537V56.2908H113.61C114.161 56.2908 114.566 56.1769 114.825 55.9453C115.088 55.7136 115.218 55.3763 115.218 54.9292C115.218 54.4577 115.08 54.1245 114.801 53.9294C114.525 53.7343 114.104 53.6368 113.529 53.6368V53.6327Z" fill="#FF3B30"/>
<path d="M123.017 59.8552L120.749 53.7302H120.713C120.725 53.8603 120.737 54.0188 120.745 54.2017C120.753 54.3887 120.761 54.5919 120.769 54.8113C120.777 55.0308 120.777 55.2503 120.777 55.4779V59.8511H120.049V52.9296H121.211L123.349 58.6887H123.381L125.552 52.9296H126.706V59.8511H125.928V55.421C125.928 55.2178 125.928 55.0105 125.936 54.8073C125.945 54.6 125.949 54.4049 125.961 54.222C125.969 54.0351 125.981 53.8766 125.989 53.7384H125.953L123.657 59.8552H123.013H123.017Z" fill="#FF3B30"/>
<path d="M134.772 59.8551H131.014V52.9336H134.772V53.6448H131.796V55.8843H134.598V56.5833H131.796V59.1439H134.772V59.8551Z" fill="#FF3B30"/>
<path d="M140.551 52.9336C141.106 52.9336 141.563 53.0027 141.924 53.145C142.288 53.2832 142.559 53.4986 142.737 53.7831C142.916 54.0716 143.005 54.4374 143.005 54.8804C143.005 55.2462 142.94 55.551 142.81 55.799C142.681 56.0428 142.511 56.2379 142.304 56.3924C142.098 56.5468 141.871 56.6606 141.636 56.7419L143.487 59.8511H142.571L140.919 56.9614H139.514V59.8511H138.729V52.9296H140.555L140.551 52.9336ZM140.502 53.6327H139.51V56.2908H140.583C141.134 56.2908 141.539 56.1769 141.798 55.9453C142.061 55.7136 142.191 55.3763 142.191 54.9292C142.191 54.4577 142.053 54.1245 141.774 53.9294C141.498 53.7343 141.077 53.6368 140.502 53.6368V53.6327Z" fill="#FF3B30"/>
<path d="M146.884 56.3151C146.884 56.0388 146.929 55.8193 147.014 55.6567C147.099 55.4901 147.216 55.3681 147.366 55.2909C147.516 55.2137 147.686 55.1771 147.872 55.1771C148.058 55.1771 148.228 55.2137 148.374 55.2909C148.524 55.3681 148.641 55.4901 148.731 55.6567C148.816 55.8234 148.86 56.0428 148.86 56.3151C148.86 56.5874 148.816 56.7988 148.731 56.9695C148.646 57.1361 148.524 57.2581 148.374 57.3393C148.224 57.4166 148.058 57.4572 147.872 57.4572C147.686 57.4572 147.516 57.4166 147.366 57.3393C147.216 57.2621 147.103 57.1361 147.014 56.9695C146.929 56.8029 146.884 56.5834 146.884 56.3151Z" fill="#FF3B30"/>
<path d="M156.793 59.8551H153.035V52.9336H156.793V53.6448H153.821V55.8843H156.623V56.5833H153.821V59.1438H156.793V59.8551ZM156.339 50.6901V50.7835C156.279 50.877 156.194 50.9868 156.084 51.1168C155.979 51.2428 155.862 51.3769 155.732 51.5192C155.602 51.6574 155.473 51.7915 155.339 51.9175C155.21 52.0435 155.088 52.1532 154.979 52.2426H154.465V52.1288C154.562 52.011 154.671 51.8646 154.789 51.698C154.906 51.5273 155.019 51.3525 155.129 51.1778C155.238 50.9989 155.331 50.8364 155.404 50.6901H156.331H156.339Z" fill="#FF3B30"/>
<path d="M166.111 56.3313C166.111 57.1117 165.973 57.762 165.693 58.2863C165.418 58.8065 165.013 59.2007 164.487 59.4649C163.964 59.725 163.329 59.8591 162.579 59.8591H160.745V52.9376H162.782C163.47 52.9376 164.062 53.0677 164.556 53.3237C165.05 53.5798 165.434 53.9618 165.702 54.4658C165.973 54.9657 166.107 55.5876 166.107 56.3313H166.111ZM165.28 56.3598C165.28 55.7379 165.179 55.2258 164.977 54.8194C164.778 54.417 164.483 54.1163 164.09 53.9212C163.701 53.722 163.227 53.6245 162.665 53.6245H161.535V59.1682H162.49C163.422 59.1682 164.118 58.9325 164.584 58.461C165.054 57.9896 165.285 57.2905 165.285 56.3598H165.28Z" fill="#FF3B30"/>
<path d="M175.177 52.9336V57.4125C175.177 57.9002 175.08 58.3391 174.886 58.7212C174.695 59.1032 174.404 59.404 174.019 59.6275C173.63 59.847 173.144 59.9527 172.561 59.9527C171.727 59.9527 171.091 59.721 170.654 59.2577C170.221 58.7943 170.002 58.1725 170.002 57.3962V52.9377H170.792V57.4206C170.792 58.0059 170.941 58.4611 171.245 58.7781C171.549 59.0951 172.002 59.2577 172.606 59.2577C173.019 59.2577 173.355 59.1804 173.618 59.0301C173.881 58.8756 174.08 58.6602 174.205 58.3879C174.335 58.1115 174.4 57.7904 174.4 57.4287V52.9417H175.181L175.177 52.9336Z" fill="#FF3B30"/>
<path d="M185.281 56.3883C185.281 56.9573 185.204 57.4694 185.054 57.9327C184.904 58.392 184.677 58.7821 184.378 59.1032C184.082 59.4202 183.713 59.656 183.268 59.7982L184.855 61.5093H183.734L182.426 59.9486C182.385 59.9486 182.345 59.9486 182.3 59.9527C182.26 59.9527 182.219 59.9567 182.179 59.9567C181.656 59.9567 181.199 59.8714 180.806 59.7007C180.417 59.53 180.093 59.2861 179.834 58.9732C179.579 58.6562 179.385 58.2822 179.255 57.8433C179.129 57.4043 179.065 56.9207 179.065 56.3842C179.065 55.677 179.178 55.0552 179.405 54.5227C179.632 53.9903 179.976 53.5758 180.437 53.2791C180.903 52.9824 181.486 52.8361 182.183 52.8361C182.879 52.8361 183.414 52.9824 183.867 53.275C184.325 53.5676 184.673 53.9822 184.908 54.5146C185.147 55.047 185.264 55.6729 185.264 56.3964L185.281 56.3883ZM179.907 56.3883C179.907 56.9735 179.988 57.4856 180.15 57.9124C180.312 58.3432 180.563 58.6724 180.899 58.9081C181.239 59.1439 181.668 59.2577 182.187 59.2577C182.705 59.2577 183.138 59.1398 183.47 58.9081C183.807 58.6765 184.054 58.3432 184.216 57.9124C184.378 57.4816 184.454 56.9735 184.454 56.3883C184.454 55.4941 184.272 54.7991 183.904 54.2951C183.539 53.7912 182.972 53.5392 182.199 53.5392C181.677 53.5392 181.243 53.653 180.907 53.8847C180.567 54.1163 180.316 54.4415 180.15 54.8682C179.988 55.2909 179.907 55.7989 179.907 56.3883Z" fill="#FF3B30"/>
<path d="M194.351 52.9336V57.4125C194.351 57.9002 194.254 58.3391 194.06 58.7212C193.869 59.1032 193.578 59.404 193.193 59.6275C192.804 59.847 192.318 59.9527 191.735 59.9527C190.901 59.9527 190.265 59.721 189.828 59.2577C189.395 58.7943 189.176 58.1725 189.176 57.3962V52.9377H189.966V57.4206C189.966 58.0059 190.115 58.4611 190.419 58.7781C190.723 59.0951 191.176 59.2577 191.78 59.2577C192.193 59.2577 192.529 59.1804 192.792 59.0301C193.055 58.8756 193.254 58.6602 193.379 58.3879C193.509 58.1115 193.574 57.7904 193.574 57.4287V52.9417H194.355L194.351 52.9336Z" fill="#FF3B30"/>
<path d="M202.361 59.8551H198.603V52.9336H202.361V53.6448H199.385V55.8843H202.187V56.5833H199.385V59.1439H202.361V59.8551Z" fill="#FF3B30"/>
<path d="M208.139 52.9336C208.694 52.9336 209.152 53.0027 209.512 53.145C209.876 53.2832 210.148 53.4986 210.326 53.7831C210.504 54.0716 210.593 54.4374 210.593 54.8804C210.593 55.2462 210.528 55.551 210.399 55.799C210.269 56.0428 210.099 56.2379 209.889 56.3924C209.678 56.5427 209.455 56.6606 209.22 56.7419L211.071 59.8511H210.156L208.504 56.9614H207.099V59.8511H206.313V52.9296H208.139V52.9336ZM208.095 53.6327H207.103V56.2908H208.176C208.726 56.2908 209.131 56.1769 209.391 55.9453C209.654 55.7136 209.783 55.3763 209.783 54.9292C209.783 54.4577 209.646 54.1245 209.366 53.9294C209.091 53.7343 208.67 53.6368 208.095 53.6368V53.6327Z" fill="#FF3B30"/>
<path d="M214.477 56.3151C214.477 56.0388 214.521 55.8193 214.606 55.6567C214.691 55.4901 214.809 55.3681 214.958 55.2909C215.108 55.2137 215.278 55.1771 215.465 55.1771C215.651 55.1771 215.821 55.2137 215.967 55.2909C216.117 55.3681 216.234 55.4901 216.323 55.6567C216.408 55.8234 216.453 56.0428 216.453 56.3151C216.453 56.5874 216.408 56.7988 216.323 56.9695C216.238 57.1361 216.117 57.2581 215.967 57.3393C215.817 57.4166 215.651 57.4572 215.465 57.4572C215.278 57.4572 215.108 57.4166 214.958 57.3393C214.809 57.2621 214.695 57.1361 214.606 56.9695C214.521 56.8029 214.477 56.5834 214.477 56.3151Z" fill="#FF3B30"/>
<path d="M222.389 52.9336C223.26 52.9336 223.895 53.1084 224.296 53.4579C224.701 53.8034 224.9 54.3033 224.9 54.9536C224.9 55.2462 224.851 55.5267 224.758 55.7908C224.665 56.051 224.515 56.2867 224.304 56.4858C224.094 56.685 223.819 56.8435 223.478 56.9573C223.138 57.0711 222.725 57.128 222.231 57.128H221.409V59.8511H220.624V52.9296H222.389V52.9336ZM222.312 53.6205H221.405V56.4411H222.138C222.567 56.4411 222.928 56.3924 223.215 56.2989C223.503 56.2054 223.721 56.051 223.867 55.8396C224.013 55.6242 224.086 55.3397 224.086 54.9861C224.086 54.5268 223.944 54.1814 223.657 53.9578C223.369 53.7302 222.924 53.6164 222.312 53.6164V53.6205Z" fill="#FF3B30"/>
<path d="M230.597 52.9336C231.152 52.9336 231.61 53.0027 231.97 53.145C232.334 53.2832 232.606 53.4986 232.784 53.7831C232.962 54.0716 233.051 54.4374 233.051 54.8804C233.051 55.2462 232.986 55.551 232.857 55.799C232.727 56.0428 232.557 56.2379 232.347 56.3924C232.136 56.5468 231.913 56.6606 231.678 56.7419L233.529 59.8511H232.614L230.962 56.9614H229.557V59.8511H228.771V52.9296H230.597V52.9336ZM230.549 53.6327H229.557V56.2908H230.63C231.18 56.2908 231.585 56.1769 231.844 55.9453C232.108 55.7136 232.237 55.3763 232.237 54.9292C232.237 54.4577 232.1 54.1245 231.82 53.9294C231.545 53.7343 231.124 53.6368 230.549 53.6368V53.6327Z" fill="#FF3B30"/>
<path d="M242.924 56.3883C242.924 56.9207 242.859 57.4084 242.725 57.8474C242.591 58.2823 242.397 58.6603 242.134 58.9732C241.875 59.2862 241.555 59.526 241.17 59.6967C240.785 59.8674 240.34 59.9527 239.83 59.9527C239.32 59.9527 238.85 59.8674 238.457 59.6967C238.068 59.526 237.744 59.2821 237.485 58.9691C237.23 58.6521 237.036 58.2782 236.906 57.8393C236.781 57.4003 236.716 56.9167 236.716 56.3802C236.716 55.673 236.829 55.0511 237.056 54.5187C237.283 53.9863 237.627 53.5717 238.089 53.275C238.554 52.9783 239.137 52.832 239.834 52.832C240.53 52.832 241.065 52.9783 241.518 53.271C241.976 53.5636 242.324 53.9782 242.559 54.5106C242.798 55.043 242.915 55.6689 242.915 56.3924L242.924 56.3883ZM237.546 56.3883C237.546 56.9736 237.627 57.4857 237.789 57.9124C237.951 58.3432 238.202 58.6724 238.538 58.9082C238.878 59.1439 239.307 59.2577 239.826 59.2577C240.344 59.2577 240.777 59.1398 241.109 58.9082C241.446 58.6765 241.693 58.3432 241.855 57.9124C242.016 57.4816 242.093 56.9736 242.093 56.3883C242.093 55.4942 241.911 54.7992 241.543 54.2952C241.178 53.7912 240.611 53.5392 239.838 53.5392C239.316 53.5392 238.882 53.653 238.546 53.8847C238.206 54.1164 237.955 54.4415 237.789 54.8682C237.627 55.2909 237.546 55.799 237.546 56.3883Z" fill="#FF3B30"/>
<path d="M249.771 56.2298H252.132V59.5869C251.78 59.7088 251.411 59.8023 251.039 59.8633C250.666 59.9242 250.249 59.9527 249.787 59.9527C249.087 59.9527 248.492 59.8104 248.01 59.5219C247.528 59.2333 247.163 58.8269 246.916 58.2944C246.665 57.762 246.544 57.128 246.544 56.3964C246.544 55.6648 246.682 55.0552 246.957 54.5227C247.232 53.9903 247.633 53.5758 248.152 53.2831C248.674 52.9864 249.302 52.8361 250.035 52.8361C250.411 52.8361 250.767 52.8726 251.1 52.9458C251.44 53.0149 251.751 53.1165 252.043 53.2425L251.743 53.9416C251.492 53.8318 251.217 53.7383 250.917 53.6571C250.618 53.5798 250.31 53.5392 249.99 53.5392C249.439 53.5392 248.965 53.657 248.573 53.8887C248.18 54.1204 247.88 54.4537 247.674 54.8763C247.467 55.3031 247.366 55.8071 247.366 56.3923C247.366 56.9776 247.455 57.4734 247.637 57.9043C247.819 58.331 248.103 58.6602 248.488 58.9C248.872 59.1357 249.37 59.2536 249.974 59.2536C250.277 59.2536 250.541 59.2374 250.759 59.2008C250.978 59.1642 251.176 59.1195 251.355 59.0667V56.9451H249.779V56.2257L249.771 56.2298Z" fill="#FF3B30"/>
<path d="M258.048 52.9336C258.603 52.9336 259.061 53.0027 259.421 53.145C259.785 53.2832 260.057 53.4986 260.235 53.7831C260.413 54.0716 260.502 54.4374 260.502 54.8804C260.502 55.2462 260.437 55.551 260.308 55.799C260.178 56.0428 260.008 56.2379 259.798 56.3924C259.587 56.5427 259.364 56.6606 259.129 56.7419L260.98 59.8511H260.065L258.413 56.9614H257.008V59.8511H256.222V52.9296H258.048V52.9336ZM258.004 53.6327H257.012V56.2908H258.085C258.635 56.2908 259.04 56.1769 259.299 55.9453C259.563 55.7136 259.692 55.3763 259.692 54.9292C259.692 54.4577 259.555 54.1245 259.275 53.9294C259 53.7343 258.579 53.6368 258.004 53.6368V53.6327Z" fill="#FF3B30"/>
<path d="M268.281 59.8551H264.523V52.9336H268.281V53.6448H265.309V55.8843H268.111V56.5833H265.309V59.1439H268.281V59.8551Z" fill="#FF3B30"/>
<path d="M276.044 58.014C276.044 58.4245 275.943 58.774 275.744 59.0667C275.546 59.3552 275.27 59.5747 274.914 59.7251C274.558 59.8754 274.137 59.9527 273.655 59.9527C273.4 59.9527 273.157 59.9405 272.93 59.9161C272.703 59.8917 272.492 59.8551 272.302 59.8064C272.112 59.7576 271.942 59.7007 271.8 59.6316V58.8594C272.031 58.9569 272.314 59.0504 272.646 59.1357C272.978 59.217 273.327 59.2577 273.691 59.2577C274.031 59.2577 274.315 59.213 274.55 59.1195C274.784 59.026 274.963 58.8919 275.08 58.7171C275.202 58.5424 275.266 58.3269 275.266 58.0831C275.266 57.8392 275.214 57.6482 275.112 57.4897C275.011 57.3271 274.841 57.1849 274.602 57.0548C274.367 56.9207 274.047 56.7825 273.643 56.6321C273.355 56.5265 273.104 56.4127 272.885 56.2907C272.667 56.1647 272.484 56.0225 272.335 55.864C272.185 55.7055 272.075 55.5226 271.998 55.3153C271.926 55.108 271.889 54.8682 271.889 54.6C271.889 54.2301 271.978 53.9131 272.16 53.653C272.347 53.3888 272.598 53.1856 272.922 53.0474C273.25 52.9052 273.622 52.8361 274.043 52.8361C274.404 52.8361 274.736 52.8726 275.04 52.9417C275.347 53.0108 275.631 53.1043 275.886 53.2222L275.643 53.9131C275.4 53.8074 275.141 53.7221 274.865 53.653C274.594 53.5839 274.315 53.5473 274.023 53.5473C273.732 53.5473 273.489 53.592 273.29 53.6814C273.092 53.7668 272.942 53.8887 272.837 54.0472C272.731 54.2057 272.679 54.3927 272.679 54.6122C272.679 54.856 272.727 55.0592 272.829 55.2177C272.93 55.3803 273.092 55.5226 273.31 55.6486C273.533 55.7705 273.825 55.9005 274.189 56.0347C274.586 56.1851 274.922 56.3395 275.202 56.5102C275.477 56.6728 275.692 56.876 275.833 57.1158C275.979 57.3515 276.052 57.6523 276.052 58.0221L276.044 58.014Z" fill="#FF3B30"/>
<path d="M283.693 58.014C283.693 58.4245 283.592 58.774 283.393 59.0667C283.195 59.3552 282.92 59.5747 282.563 59.7251C282.207 59.8754 281.786 59.9527 281.304 59.9527C281.049 59.9527 280.806 59.9405 280.579 59.9161C280.352 59.8917 280.142 59.8551 279.951 59.8064C279.761 59.7576 279.591 59.7007 279.449 59.6316V58.8594C279.68 58.9569 279.964 59.0504 280.296 59.1357C280.628 59.217 280.976 59.2577 281.34 59.2577C281.68 59.2577 281.964 59.213 282.199 59.1195C282.434 59.026 282.608 58.8919 282.729 58.7171C282.851 58.5424 282.916 58.3269 282.916 58.0831C282.916 57.8392 282.863 57.6482 282.762 57.4897C282.66 57.3271 282.49 57.1849 282.255 57.0548C282.021 56.9207 281.701 56.7825 281.296 56.6321C281.008 56.5265 280.757 56.4127 280.539 56.2907C280.32 56.1647 280.138 56.0225 279.988 55.864C279.838 55.7055 279.729 55.5226 279.652 55.3153C279.579 55.108 279.542 54.8682 279.542 54.6C279.542 54.2301 279.631 53.9131 279.814 53.653C280 53.3888 280.251 53.1856 280.575 53.0474C280.903 52.9052 281.276 52.8361 281.697 52.8361C282.057 52.8361 282.389 52.8726 282.693 52.9417C283.001 53.0108 283.284 53.1043 283.539 53.2222L283.296 53.9131C283.053 53.8074 282.794 53.7221 282.519 53.653C282.247 53.5839 281.968 53.5473 281.676 53.5473C281.385 53.5473 281.142 53.592 280.943 53.6814C280.745 53.7668 280.595 53.8887 280.49 54.0472C280.385 54.2057 280.332 54.3927 280.332 54.6122C280.332 54.856 280.381 55.0592 280.482 55.2177C280.583 55.3803 280.745 55.5226 280.964 55.6486C281.186 55.7705 281.478 55.9005 281.842 56.0347C282.239 56.1851 282.575 56.3395 282.855 56.5102C283.13 56.6728 283.345 56.876 283.486 57.1158C283.632 57.3515 283.705 57.6523 283.705 58.0221L283.693 58.014Z" fill="#FF3B30"/>
<path d="M291.29 59.8551H287.532V52.9336H291.29V53.6448H288.318V55.8843H291.12V56.5833H288.318V59.1439H291.29V59.8551Z" fill="#FF3B30"/>
<path d="M297.068 52.9336C297.623 52.9336 298.081 53.0027 298.441 53.145C298.805 53.2832 299.073 53.4986 299.255 53.7831C299.433 54.0716 299.526 54.4374 299.526 54.8804C299.526 55.2462 299.461 55.551 299.332 55.799C299.198 56.0428 299.032 56.2379 298.822 56.3924C298.615 56.5427 298.392 56.6606 298.153 56.7419L300.004 59.8511H299.093L297.441 56.9614H296.036V59.8511H295.25V52.9296H297.076L297.068 52.9336ZM297.024 53.6327H296.027V56.2908H297.097C297.647 56.2908 298.052 56.1769 298.315 55.9453C298.579 55.7136 298.708 55.3763 298.708 54.9292C298.708 54.4577 298.566 54.1245 298.291 53.9294C298.016 53.7343 297.595 53.6368 297.02 53.6368L297.024 53.6327Z" fill="#FF3B30"/>
<path d="M11.7716 25.7961H7.4833C6.44665 25.7961 5.85949 26.3855 5.85949 27.4178V30.2913H0.20247C0.0688398 31.5065 0 32.7461 0 33.9939C0 44.2603 4.56368 53.4578 11.7716 59.6884V25.7961Z" fill="#FF3B30"/>
<path d="M66.6571 24.0891H62.2473V49.9341H64.1627C66.6936 45.1829 68.1311 39.7611 68.1311 34.002C68.1311 30.5555 67.6087 27.2227 66.6531 24.0851L66.6571 24.0891Z" fill="#FF3B30"/>
<path d="M47.0258 59.2739V49.9341H51.7069V24.0892H47.0258V14.7494H62.1462C55.9992 5.84042 45.7178 0 34.0717 0C22.4256 0 12.1361 5.84042 5.99316 14.7413H37.2465C41.0124 14.7413 42.3406 16.0662 42.3406 19.8257V30.2954H30.897V27.4219C30.897 26.3896 30.3098 25.8003 29.2732 25.8003H24.9849V66.7726C27.8761 67.5692 30.9172 68.0041 34.0596 68.0041C42.8225 68.0041 50.8079 64.6998 56.8415 59.278H47.0136H47.0258V59.2739Z" fill="#FF3B30"/>
</svg>
