<svg width="25" height="25" viewBox="0 0 25 25" fill="none" xmlns="http://www.w3.org/2000/svg">
<path fill-rule="evenodd" clip-rule="evenodd" d="M22.5 10.625C22.5 10.4592 22.4342 10.3003 22.3169 10.1831C22.1997 10.0658 22.0408 10 21.875 10H7.74C7.57424 10 7.41527 10.0658 7.29806 10.1831C7.18085 10.3003 7.115 10.4592 7.115 10.625C7.115 10.7908 7.18085 10.9497 7.29806 11.0669C7.41527 11.1842 7.57424 11.25 7.74 11.25H21.875C22.0408 11.25 22.1997 11.1842 22.3169 11.0669C22.4342 10.9497 22.5 10.7908 22.5 10.625ZM22.5 5.625C22.5 5.45924 22.4342 5.30027 22.3169 5.18306C22.1997 5.06585 22.0408 5 21.875 5H3.125C2.95924 5 2.80027 5.06585 2.68306 5.18306C2.56585 5.30027 2.5 5.45924 2.5 5.625C2.5 5.79076 2.56585 5.94973 2.68306 6.06694C2.80027 6.18415 2.95924 6.25 3.125 6.25H21.875C22.0408 6.25 22.1997 6.18415 22.3169 6.06694C22.4342 5.94973 22.5 5.79076 22.5 5.625ZM22.5 15.625C22.5 15.4592 22.4342 15.3003 22.3169 15.1831C22.1997 15.0658 22.0408 15 21.875 15H3.125C2.95924 15 2.80027 15.0658 2.68306 15.1831C2.56585 15.3003 2.5 15.4592 2.5 15.625C2.5 15.7908 2.56585 15.9497 2.68306 16.0669C2.80027 16.1842 2.95924 16.25 3.125 16.25H21.875C22.0408 16.25 22.1997 16.1842 22.3169 16.0669C22.4342 15.9497 22.5 15.7908 22.5 15.625ZM22.5 20.625C22.5 20.4592 22.4342 20.3003 22.3169 20.1831C22.1997 20.0658 22.0408 20 21.875 20H7.74C7.57424 20 7.41527 20.0658 7.29806 20.1831C7.18085 20.3003 7.115 20.4592 7.115 20.625C7.115 20.7908 7.18085 20.9497 7.29806 21.0669C7.41527 21.1842 7.57424 21.25 7.74 21.25H21.875C22.0408 21.25 22.1997 21.1842 22.3169 21.0669C22.4342 20.9497 22.5 20.7908 22.5 20.625Z" fill="#404040"/>
</svg>
