<svg width="10" height="10" viewBox="0 0 10 10" fill="none" xmlns="http://www.w3.org/2000/svg">
<path d="M4.6875 9.375C3.7604 9.375 2.85412 9.10009 2.08327 8.58502C1.31241 8.06995 0.711603 7.33786 0.356817 6.48133C0.00203102 5.6248 -0.0907971 4.6823 0.0900711 3.77302C0.270939 2.86373 0.71738 2.0285 1.37294 1.37294C2.0285 0.71738 2.86373 0.270939 3.77302 0.0900711C4.6823 -0.0907971 5.6248 0.00203102 6.48133 0.356817C7.33786 0.711603 8.06995 1.31241 8.58502 2.08327C9.10009 2.85412 9.375 3.7604 9.375 4.6875C9.375 5.9307 8.88114 7.12299 8.00207 8.00207C7.12299 8.88114 5.9307 9.375 4.6875 9.375ZM4.6875 0.721156C3.90303 0.721156 3.13618 0.953778 2.48392 1.38961C1.83166 1.82543 1.32328 2.44489 1.02308 3.16965C0.722873 3.8944 0.644326 4.6919 0.797368 5.4613C0.95041 6.23069 1.32817 6.93743 1.88287 7.49213C2.43758 8.04684 3.14431 8.42459 3.91371 8.57764C4.6831 8.73068 5.4806 8.65213 6.20536 8.35193C6.93011 8.05172 7.54957 7.54335 7.9854 6.89109C8.42123 6.23882 8.65385 5.47197 8.65385 4.6875C8.65385 3.63556 8.23597 2.62671 7.49213 1.88287C6.7483 1.13904 5.73944 0.721156 4.6875 0.721156Z" fill="#0033A0"/>
<path d="M6.67042 7.03133C6.62296 7.0316 6.57592 7.0225 6.53199 7.00456C6.48806 6.98662 6.4481 6.96018 6.41441 6.92676L4.43123 4.94358C4.39781 4.90989 4.37138 4.86994 4.35343 4.826C4.33549 4.78207 4.32639 4.73503 4.32667 4.68758V1.80296C4.32667 1.70733 4.36466 1.61561 4.43228 1.54799C4.4999 1.48037 4.59161 1.44238 4.68724 1.44238C4.78287 1.44238 4.87459 1.48037 4.94221 1.54799C5.00983 1.61561 5.04782 1.70733 5.04782 1.80296V4.53974L6.92643 6.41474C6.96022 6.44826 6.98705 6.48814 7.00535 6.53208C7.02366 6.57602 7.03308 6.62315 7.03308 6.67075C7.03308 6.71835 7.02366 6.76548 7.00535 6.80942C6.98705 6.85336 6.96022 6.89324 6.92643 6.92676C6.89273 6.96018 6.85278 6.98662 6.80884 7.00456C6.76491 7.0225 6.71787 7.0316 6.67042 7.03133Z" fill="#0033A0"/>
</svg>
