<svg width="30" height="30" viewBox="0 0 30 30" fill="none" xmlns="http://www.w3.org/2000/svg">
<path fill-rule="evenodd" clip-rule="evenodd" d="M1.875 8.125C1.875 4.67322 4.67322 1.875 8.125 1.875H21.875C25.3267 1.875 28.125 4.67322 28.125 8.125V21.875C28.125 25.3267 25.3267 28.125 21.875 28.125H8.125C4.67322 28.125 1.875 25.3267 1.875 21.875V8.125ZM8.125 3.125C5.36357 3.125 3.125 5.36357 3.125 8.125V21.875C3.125 24.6364 5.36357 26.875 8.125 26.875H21.875C24.6364 26.875 26.875 24.6364 26.875 21.875V8.125C26.875 5.36357 24.6364 3.125 21.875 3.125H8.125Z" fill="#0033A0" stroke="#0033A0" stroke-width="0.3"/>
<path fill-rule="evenodd" clip-rule="evenodd" d="M13.0864 13.1956C13.2931 13.088 13.5425 13.1044 13.7334 13.238L19.9834 17.613C20.1505 17.7299 20.25 17.921 20.25 18.125C20.25 18.329 20.1505 18.52 19.9834 18.637L13.7334 23.012C13.5425 23.1456 13.2931 23.162 13.0864 23.0544C12.8797 22.9467 12.75 22.733 12.75 22.5V13.75C12.75 13.517 12.8797 13.3032 13.0864 13.1956ZM14 14.9504V21.2996L18.5351 18.125L14 14.9504Z" fill="#0033A0" stroke="#0033A0" stroke-width="0.3"/>
<path fill-rule="evenodd" clip-rule="evenodd" d="M1.875 10C1.875 9.65483 2.15483 9.375 2.5 9.375H27.5C27.8451 9.375 28.125 9.65483 28.125 10C28.125 10.3452 27.8451 10.625 27.5 10.625H2.5C2.15483 10.625 1.875 10.3452 1.875 10Z" fill="#0033A0" stroke="#0033A0" stroke-width="0.3"/>
<path fill-rule="evenodd" clip-rule="evenodd" d="M9.80253 1.907C10.13 1.79784 10.4839 1.97481 10.5931 2.30228L13.0931 9.80228C13.2023 10.1298 13.0253 10.4837 12.6978 10.5929C12.3704 10.702 12.0164 10.525 11.9072 10.1976L9.40724 2.69756C9.29809 2.3701 9.47506 2.01615 9.80253 1.907Z" fill="#0033A0" stroke="#0033A0" stroke-width="0.3"/>
<path fill-rule="evenodd" clip-rule="evenodd" d="M17.3025 1.907C17.63 1.79784 17.984 1.97481 18.0931 2.30228L20.5931 9.80228C20.7022 10.1298 20.5252 10.4837 20.1977 10.5929C19.8704 10.702 19.5164 10.525 19.4072 10.1976L16.9072 2.69756C16.7981 2.3701 16.9751 2.01615 17.3025 1.907Z" fill="#0033A0" stroke="#0033A0" stroke-width="0.3"/>
</svg>
