<svg id="logo-v2" data-name="Calque 2" xmlns="http://www.w3.org/2000/svg" viewBox="0 0 682.4 113.45">
  <g id="Calque_1-2" data-name="Calque 1">
    <g>
      <path d="M154.65,87.35v-48.41h-5c-1.21,0-1.9.69-1.9,1.88v3.34h-13.35v-12.17c0-4.37,1.55-5.91,5.94-5.91h44.03c4.39,0,5.94,1.54,5.94,5.91v12.17h-13.36v-3.34c0-1.2-.69-1.88-1.9-1.88h-5v48.41h-15.42Z"/>
      <path d="M192.05,56.08c0-17.56,13.53-31.01,31.88-31.01,7.32,0,23.61,2.83,23.61,14.31v8.05h-13.79v-3.34c0-3.51-5.51-4.88-9.48-4.88-8.96,0-16.2,5.74-16.2,16.88,0,10.02,7.5,18.16,16.54,18.16,10.77,0,17.58-7.8,17.58-7.8l7.84,10.97s-9.3,10.97-25.68,10.97c-19.47,0-32.31-13.88-32.31-32.3Z" />
      <path d="M260.01,87.35v-46.52c0-1.2-.69-1.88-1.9-1.88h-3.7v-12.85h14.73c4.39,0,6.29,1.88,6.29,6.25v18.25h20.85v-18.25c0-4.37,1.9-6.25,6.29-6.25h14.73v12.85h-3.7c-1.21,0-1.9.69-1.9,1.88v46.52h-15.42v-23.99h-20.85v23.99h-15.42Z"/>
      <path d="M320.59,87.35v-12.85h1.64c1.38,0,1.81-.43,2.33-1.89l16.8-46.52h16.03l16.8,46.52c.52,1.46.95,1.89,2.33,1.89h1.64v12.85h-9.91c-4.31,0-6.03-1.28-7.24-4.97l-2.67-7.88h-17.92l-2.67,7.88c-1.21,3.68-2.93,4.97-7.24,4.97h-9.91ZM343.68,62.08h11.37l-3.1-10.2c-1.21-3.86-2.5-10.11-2.5-10.11h-.17s-1.29,6.25-2.5,10.11l-3.1,10.2Z" />
      <path d="M387.06,81.1v-42.15h-5.6v-12.85h25.33c19.39,0,31.79,11.22,31.79,30.5s-12.41,30.76-31.79,30.76h-13.44c-4.39,0-6.29-1.88-6.29-6.25ZM402.48,72.62c0,1.2.69,1.89,1.9,1.89h1.81c10.17,0,16.37-6.17,16.37-17.91s-6.46-17.65-16.37-17.65h-3.71v33.67Z"/>
      <path d="M444.6,87.35v-5.31h5.69v-49.61h-5.69v-5.31h17.32v5.31h-5.77v49.61h5.77v5.31h-17.32Z"/>
      <path d="M469.5,87.35v-5.31h3.7c1.21,0,1.9-.6,1.9-1.88V27.12h5.51l30.93,42.92c2.07,3,4.91,7.88,4.91,7.88h.17s-.43-4.71-.43-7.88v-37.7c0-3.68,1.55-5.23,5.26-5.23h6.38v5.31h-3.7c-1.21,0-1.9.6-1.9,1.88v53.03h-5.51l-30.93-42.92c-2.15-2.91-5-7.8-5-7.8h-.17s.52,4.63.52,7.8v37.7c0,3.68-1.55,5.23-5.26,5.23h-6.38Z"/>
      <path d="M540.56,87.35v-54.92h-5.6v-5.31h32.22c3.7,0,5.17,1.54,5.17,5.23v6h-5.6v-4.03c0-1.29-.69-1.88-1.9-1.88h-18.27v22.62h21.97v5.31h-21.97v26.99h-6.03Z"/>
      <path d="M576.77,56.85c0-17.31,13.61-30.76,30.85-30.76s30.85,13.45,30.85,30.76-13.7,31.53-30.85,31.53-30.85-13.88-30.85-31.53ZM583.06,56.85c0,14.56,10.94,25.87,24.56,25.87s24.56-11.31,24.56-25.87-11.03-25.1-24.56-25.1-24.56,10.88-24.56,25.1Z"/>
      <path d="M644.84,79.82l3.7-4.37s6.12,7.37,15.68,7.37c6.63,0,11.98-4.28,11.98-10.71,0-14.91-29.9-11.91-29.9-30.59,0-8.4,7.32-15.42,18.52-15.42,5.86,0,16.37,2.48,16.37,10.37v4.28h-5.69v-2.83c0-3.6-5-6.25-10.59-6.25-7.84,0-12.41,4.54-12.41,9.68,0,13.97,29.9,10.54,29.9,30.41,0,9-6.97,16.62-18.35,16.62-12.41,0-19.21-8.57-19.21-8.57Z"/>
      <path d="M19.71,43.04h-7.18c-1.74,0-2.72.98-2.72,2.71v4.79H.34c-.23,2.03-.34,4.09-.34,6.18,0,17.13,7.64,32.48,19.71,42.87v-56.55Z" />
      <path d="M111.62,40.19h-7.38v43.12h3.21c4.24-7.93,6.64-16.97,6.64-26.58,0-5.75-.87-11.31-2.47-16.54Z"/>
      <path d="M78.75,98.89v-15.58h7.84v-43.12h-7.84v-15.58h25.32C93.77,9.74,76.56,0,57.05,0S20.32,9.74,10.04,24.59h52.33c6.3,0,8.53,2.21,8.53,8.48v17.47h-19.16v-4.79c0-1.73-.99-2.71-2.72-2.71h-7.18v68.36c4.84,1.33,9.93,2.05,15.2,2.05,14.67,0,28.04-5.51,38.15-14.56h-16.45.02Z"/>
    </g>
  </g>
</svg>